<!DOCTYPE svg PUBLIC "-//W3C//DTD SVG 1.1//EN" "http://www.w3.org/Graphics/SVG/1.1/DTD/svg11.dtd">
<!-- Uploaded to: SVG Repo, www.svgrepo.com, Transformed by: SVG Repo Mixer Tools -->
<svg fill="#fff" height="64px" width="64px" version="1.1" id="Layer_1" xmlns="http://www.w3.org/2000/svg" xmlns:xlink="http://www.w3.org/1999/xlink" viewBox="-143 145 512 512" xml:space="preserve" stroke="#fff">
<g id="SVGRepo_bgCarrier" stroke-width="0"/>
<g id="SVGRepo_tracerCarrier" stroke-linecap="round" stroke-linejoin="round"/>
<g id="SVGRepo_iconCarrier"> <path d="M-143,145v512h512V145H-143z M23,506.3l-2.1-3.6l-35.2-60.3l-0.7-1.3l0.7-1.2l80.9-140.1l2.1-3.6l2.1,3.6l35.2,60.3l0.7,1.2 l-0.7,1.2L25.1,502.6L23,506.3z M238.9,451.6l-34.7,60.6l-0.7,1.2h-1.4H40.4h-4.2l2.1-3.7L73,449.1l0.7-1.2h1.4h161.7h4.2 L238.9,451.6z M236.8,433.5l-69.8,0.3h-1.4l-0.7-1.2L84,292.5l-2.1-3.7h4.2l69.9-0.3h1.4l0.7,1.2L239,429.8l2.1,3.7H236.8z"/> </g>
</svg>