<svg width="8" height="7" xmlns="http://www.w3.org/2000/svg" xmlns:xlink="http://www.w3.org/1999/xlink" xml:space="preserve" overflow="hidden"><g transform="translate(-553 -287)"><path d="M1.54492 6.09766C1.88398 6.09766 2.16152 5.82148 2.16152 5.48105 2.16152 5.34707 2.11777 5.22266 2.04531 5.12148 1.9332 4.96699 1.75137 4.86445 1.54629 4.86445 1.34121 4.86445 1.15938 4.96563 1.04727 5.12148 0.974805 5.22266 0.931055 5.34707 0.931055 5.48105 0.929688 5.82148 1.20586 6.09766 1.54492 6.09766Z" fill="#FFFFFF" transform="matrix(1.14286 0 0 1 555.234 285.018)"/><path d="M2.89023 4.7291 2.89023 4.2123 2.89023 4.13574 2.81367 4.13574 2.29688 4.13711 2.29961 4.73047Z" fill="#FFFFFF" transform="matrix(1.14286 0 0 1 555.234 285.018)"/><path d="M4.49805 1.98242-1.4082 1.98242C-1.71035 1.98242-1.95508 2.22715-1.95508 2.5293L-1.95508 8.43555C-1.95508 8.73769-1.71035 8.98242-1.4082 8.98242L4.49805 8.98242C4.8002 8.98242 5.04492 8.73769 5.04492 8.43555L5.04492 2.5293C5.04492 2.22715 4.8002 1.98242 4.49805 1.98242ZM3.29492 5.12285 3.29492 6.55566C3.29492 6.92891 2.99141 7.23242 2.61816 7.23242L0.47168 7.23242C0.0984375 7.23242-0.205078 6.92891-0.205078 6.55566L-0.205078 5.12285-0.205078 4.40781C-0.205078 4.03457 0.0984375 3.73105 0.47168 3.73105L2.61816 3.73105C2.99141 3.73105 3.29492 4.03457 3.29492 4.40781L3.29492 5.12285Z" fill="#FFFFFF" transform="matrix(1.14286 0 0 1 555.234 285.018)"/><path d="M2.50195 5.48242C2.50195 6.01016 2.07266 6.43945 1.54492 6.43945 1.01719 6.43945 0.587891 6.01016 0.587891 5.48242 0.587891 5.35527 0.613867 5.23359 0.658984 5.12285L0.136719 5.12285 0.136719 6.55566C0.136719 6.74023 0.287109 6.89062 0.47168 6.89062L2.61816 6.89062C2.80273 6.89062 2.95312 6.74023 2.95312 6.55566L2.95312 5.12285 2.43086 5.12285C2.47734 5.23359 2.50195 5.35527 2.50195 5.48242Z" fill="#FFFFFF" transform="matrix(1.14286 0 0 1 555.234 285.018)"/></g></svg>