<svg width="10" height="10" xmlns="http://www.w3.org/2000/svg" xmlns:xlink="http://www.w3.org/1999/xlink" xml:space="preserve" overflow="hidden"><g transform="translate(-553 -323)"><path d="M558 328.879C558.484 328.879 558.881 328.484 558.881 327.998 558.881 327.807 558.818 327.629 558.715 327.484 558.555 327.264 558.295 327.117 558.002 327.117 557.709 327.117 557.449 327.262 557.289 327.484 557.186 327.629 557.123 327.807 557.123 327.998 557.121 328.484 557.516 328.879 558 328.879Z" fill="#FFFFFF"/><path d="M559.922 326.924 559.922 326.186 559.922 326.076 559.812 326.076 559.074 326.078 559.078 326.926Z" fill="#FFFFFF"/><path d="M562.219 323 553.781 323C553.35 323 553 323.35 553 323.781L553 332.219C553 332.65 553.35 333 553.781 333L562.219 333C562.65 333 563 332.65 563 332.219L563 323.781C563 323.35 562.65 323 562.219 323ZM560.5 327.486 560.5 329.533C560.5 330.066 560.066 330.5 559.533 330.5L556.467 330.5C555.934 330.5 555.5 330.066 555.5 329.533L555.5 327.486 555.5 326.465C555.5 325.932 555.934 325.498 556.467 325.498L559.533 325.498C560.066 325.498 560.5 325.932 560.5 326.465L560.5 327.486Z" fill="#FFFFFF"/><path d="M559.367 328C559.367 328.754 558.754 329.367 558 329.367 557.246 329.367 556.633 328.754 556.633 328 556.633 327.818 556.67 327.645 556.734 327.486L555.988 327.486 555.988 329.533C555.988 329.797 556.203 330.012 556.467 330.012L559.533 330.012C559.797 330.012 560.012 329.797 560.012 329.533L560.012 327.486 559.266 327.486C559.332 327.645 559.367 327.818 559.367 328Z" fill="#FFFFFF"/></g></svg>