<svg width="29" height="29" xmlns="http://www.w3.org/2000/svg" xmlns:xlink="http://www.w3.org/1999/xlink" xml:space="preserve" overflow="hidden"><g transform="translate(-553 -323)"><path d="M567.5 340.049C568.905 340.049 570.055 338.905 570.055 337.494 570.055 336.939 569.873 336.424 569.573 336.005 569.109 335.365 568.355 334.94 567.506 334.94 566.656 334.94 565.903 335.359 565.438 336.005 565.138 336.424 564.957 336.939 564.957 337.494 564.951 338.905 566.095 340.049 567.5 340.049Z" fill="#FFFFFF"/><path d="M573.073 334.379 573.073 332.238 573.073 331.921 572.756 331.921 570.615 331.927 570.627 334.385Z" fill="#FFFFFF"/><path d="M579.734 323 555.266 323C554.014 323 553 324.014 553 325.266L553 349.734C553 350.986 554.014 352 555.266 352L579.734 352C580.986 352 582 350.986 582 349.734L582 325.266C582 324.014 580.986 323 579.734 323ZM574.75 336.01 574.75 341.946C574.75 343.493 573.493 344.75 571.946 344.75L563.054 344.75C561.507 344.75 560.25 343.493 560.25 341.946L560.25 336.01 560.25 333.048C560.25 331.502 561.507 330.244 563.054 330.244L571.946 330.244C573.493 330.244 574.75 331.502 574.75 333.048L574.75 336.01Z" fill="#FFFFFF"/><path d="M571.465 337.5C571.465 339.686 569.686 341.465 567.5 341.465 565.314 341.465 563.535 339.686 563.535 337.5 563.535 336.973 563.643 336.469 563.83 336.01L561.666 336.01 561.666 341.946C561.666 342.711 562.289 343.334 563.054 343.334L571.946 343.334C572.711 343.334 573.334 342.711 573.334 341.946L573.334 336.01 571.17 336.01C571.363 336.469 571.465 336.973 571.465 337.5Z" fill="#FFFFFF"/></g></svg>