<svg width="33" height="33" xmlns="http://www.w3.org/2000/svg" xmlns:xlink="http://www.w3.org/1999/xlink" xml:space="preserve" overflow="hidden"><defs><clipPath id="clip0"><rect x="1898" y="982" width="33" height="33"/></clipPath><clipPath id="clip1"><path d="M1901 998C1901 990.82 1906.82 985 1914 985 1921.18 985 1927 990.82 1927 998 1927 1005.18 1921.18 1011 1914 1011 1906.82 1011 1901 1005.18 1901 998Z" fill-rule="evenodd" clip-rule="evenodd"/></clipPath></defs><g clip-path="url(#clip0)" transform="translate(-1898 -982)"><path d="M1898 998.5C1898 989.387 1905.39 982 1914.5 982 1923.61 982 1931 989.387 1931 998.5 1931 1007.61 1923.61 1015 1914.5 1015 1905.39 1015 1898 1007.61 1898 998.5Z" fill="#140129" fill-rule="evenodd"/><g clip-path="url(#clip1)"><g><g><path d="M1914 1000.29C1915.26 1000.29 1916.29 999.259 1916.29 997.995 1916.29 997.497 1916.13 997.035 1915.86 996.659 1915.44 996.085 1914.77 995.705 1914.01 995.705 1913.24 995.705 1912.57 996.08 1912.15 996.659 1911.88 997.035 1911.72 997.497 1911.72 997.995 1911.71 999.259 1912.74 1000.29 1914 1000.29Z" fill="#FFFFFF"/><path d="M1919 995.202 1919 993.282 1919 992.998 1918.71 992.998 1916.79 993.003 1916.8 995.207Z" fill="#FFFFFF"/><path d="M1924.97 985 1903.03 985C1901.91 985 1901 985.909 1901 987.031L1901 1008.97C1901 1010.09 1901.91 1011 1903.03 1011L1924.97 1011C1926.09 1011 1927 1010.09 1927 1008.97L1927 987.031C1927 985.909 1926.09 985 1924.97 985ZM1920.5 996.664 1920.5 1001.99C1920.5 1003.37 1919.37 1004.5 1917.99 1004.5L1910.01 1004.5C1908.63 1004.5 1907.5 1003.37 1907.5 1001.99L1907.5 996.664 1907.5 994.008C1907.5 992.622 1908.63 991.495 1910.01 991.495L1917.99 991.495C1919.37 991.495 1920.5 992.622 1920.5 994.008L1920.5 996.664Z" fill="#FFFFFF"/><path d="M1917.55 998C1917.55 999.96 1915.96 1001.55 1914 1001.55 1912.04 1001.55 1910.45 999.96 1910.45 998 1910.45 997.528 1910.54 997.076 1910.71 996.664L1908.77 996.664 1908.77 1001.99C1908.77 1002.67 1909.33 1003.23 1910.01 1003.23L1917.99 1003.23C1918.67 1003.23 1919.23 1002.67 1919.23 1001.99L1919.23 996.664 1917.29 996.664C1917.46 997.076 1917.55 997.528 1917.55 998Z" fill="#FFFFFF"/></g></g></g></g></svg>