<svg width="49" height="49" xmlns="http://www.w3.org/2000/svg" xmlns:xlink="http://www.w3.org/1999/xlink" xml:space="preserve" overflow="hidden"><defs><clipPath id="clip0"><rect x="1898" y="982" width="49" height="49"/></clipPath><clipPath id="clip1"><path d="M1905 1005.5C1905 996.387 1912.39 989 1921.5 989 1930.61 989 1938 996.387 1938 1005.5 1938 1014.61 1930.61 1022 1921.5 1022 1912.39 1022 1905 1014.61 1905 1005.5Z" fill-rule="evenodd" clip-rule="evenodd"/></clipPath></defs><g clip-path="url(#clip0)" transform="translate(-1898 -982)"><path d="M1898 1006.5C1898 992.969 1908.97 982 1922.5 982 1936.03 982 1947 992.969 1947 1006.5 1947 1020.03 1936.03 1031 1922.5 1031 1908.97 1031 1898 1020.03 1898 1006.5Z" fill="#FFFFFF" fill-rule="evenodd"/><g clip-path="url(#clip1)"><g><g><path d="M1921.5 1008.4C1923.1 1008.4 1924.41 1007.1 1924.41 1005.49 1924.41 1004.86 1924.2 1004.28 1923.86 1003.8 1923.33 1003.07 1922.47 1002.59 1921.51 1002.59 1920.54 1002.59 1919.68 1003.06 1919.15 1003.8 1918.81 1004.28 1918.61 1004.86 1918.61 1005.49 1918.6 1007.1 1919.9 1008.4 1921.5 1008.4Z" fill="#140129"/><path d="M1927.84 1001.95 1927.84 999.512 1927.84 999.151 1927.48 999.151 1925.05 999.158 1925.06 1001.96Z" fill="#140129"/><path d="M1935.42 989 1907.58 989C1906.15 989 1905 990.154 1905 991.578L1905 1019.42C1905 1020.85 1906.15 1022 1907.58 1022L1935.42 1022C1936.85 1022 1938 1020.85 1938 1019.42L1938 991.578C1938 990.154 1936.85 989 1935.42 989ZM1929.75 1003.8 1929.75 1010.56C1929.75 1012.32 1928.32 1013.75 1926.56 1013.75L1916.44 1013.75C1914.68 1013.75 1913.25 1012.32 1913.25 1010.56L1913.25 1003.8 1913.25 1000.43C1913.25 998.674 1914.68 997.243 1916.44 997.243L1926.56 997.243C1928.32 997.243 1929.75 998.674 1929.75 1000.43L1929.75 1003.8Z" fill="#140129"/><path d="M1926.01 1005.5C1926.01 1007.99 1923.99 1010.01 1921.5 1010.01 1919.01 1010.01 1916.99 1007.99 1916.99 1005.5 1916.99 1004.9 1917.11 1004.33 1917.32 1003.8L1914.86 1003.8 1914.86 1010.56C1914.86 1011.43 1915.57 1012.14 1916.44 1012.14L1926.56 1012.14C1927.43 1012.14 1928.14 1011.43 1928.14 1010.56L1928.14 1003.8 1925.68 1003.8C1925.9 1004.33 1926.01 1004.9 1926.01 1005.5Z" fill="#140129"/></g></g></g></g></svg>