<svg width="462" height="165" xmlns="http://www.w3.org/2000/svg" xmlns:xlink="http://www.w3.org/1999/xlink" xml:space="preserve" overflow="hidden"><defs><clipPath id="clip0"><path d="M1917 1053C1917 1034.77 1931.77 1020 1950 1020 1968.23 1020 1983 1034.77 1983 1053 1983 1071.23 1968.23 1086 1950 1086 1931.77 1086 1917 1071.23 1917 1053Z" fill-rule="evenodd" clip-rule="evenodd"/></clipPath></defs><g transform="translate(-1872 -970)"><rect x="1872" y="970" width="462" height="165" fill="#140129"/><path d="M1898 1052.5C1898 1023.51 1921.51 1000 1950.5 1000 1979.49 1000 2003 1023.51 2003 1052.5 2003 1081.49 1979.49 1105 1950.5 1105 1921.51 1105 1898 1081.49 1898 1052.5Z" fill="#FFFFFF" fill-rule="evenodd"/><g clip-path="url(#clip0)"><g><g><path d="M1950 1058.8C1953.2 1058.8 1955.81 1056.2 1955.81 1052.99 1955.81 1051.72 1955.4 1050.55 1954.72 1049.6 1953.66 1048.14 1951.95 1047.17 1950.01 1047.17 1948.08 1047.17 1946.36 1048.13 1945.31 1049.6 1944.62 1050.55 1944.21 1051.72 1944.21 1052.99 1944.2 1056.2 1946.8 1058.8 1950 1058.8Z" fill="#140129"/><path d="M1962.68 1045.9 1962.68 1041.02 1962.68 1040.3 1961.96 1040.3 1957.09 1040.32 1957.12 1045.91Z" fill="#140129"/><path d="M1977.84 1020 1922.16 1020C1919.31 1020 1917 1022.31 1917 1025.16L1917 1080.84C1917 1083.69 1919.31 1086 1922.16 1086L1977.84 1086C1980.69 1086 1983 1083.69 1983 1080.84L1983 1025.16C1983 1022.31 1980.69 1020 1977.84 1020ZM1966.5 1049.61 1966.5 1063.12C1966.5 1066.64 1963.64 1069.5 1960.12 1069.5L1939.88 1069.5C1936.36 1069.5 1933.5 1066.64 1933.5 1063.12L1933.5 1049.61 1933.5 1042.87C1933.5 1039.35 1936.36 1036.49 1939.88 1036.49L1960.12 1036.49C1963.64 1036.49 1966.5 1039.35 1966.5 1042.87L1966.5 1049.61Z" fill="#140129"/><path d="M1959.02 1053C1959.02 1057.98 1954.98 1062.02 1950 1062.02 1945.02 1062.02 1940.98 1057.98 1940.98 1053 1940.98 1051.8 1941.22 1050.65 1941.65 1049.61L1936.72 1049.61 1936.72 1063.12C1936.72 1064.86 1938.14 1066.28 1939.88 1066.28L1960.12 1066.28C1961.86 1066.28 1963.28 1064.86 1963.28 1063.12L1963.28 1049.61 1958.35 1049.61C1958.79 1050.65 1959.02 1051.8 1959.02 1053Z" fill="#140129"/></g></g></g><text fill="#FFFFFF" font-family="Leelawadee UI,Leelawadee UI_MSFontService,sans-serif" font-weight="700" font-size="46" transform="matrix(1 0 0 1 2016.49 1070)">INSTAGRAM</text></g></svg>