<svg width="7" height="8" xmlns="http://www.w3.org/2000/svg" xmlns:xlink="http://www.w3.org/1999/xlink" xml:space="preserve" overflow="hidden"><g transform="translate(-354 -425)"><path d="M4.49805 1.98242-1.4082 1.98242C-1.71035 1.98242-1.95508 2.22715-1.95508 2.5293L-1.95508 8.43555C-1.95508 8.73769-1.71035 8.98242-1.4082 8.98242L4.49805 8.98242C4.8002 8.98242 5.04492 8.73769 5.04492 8.43555L5.04492 2.5293C5.04492 2.22715 4.8002 1.98242 4.49805 1.98242ZM1.54492 7.22285C1.37266 7.22285 1.20586 7.19688 1.04863 7.15039 1.11563 7.04512 1.18809 6.90977 1.225 6.77578 1.24687 6.69785 1.34805 6.29453 1.34805 6.29453 1.4082 6.41074 1.58594 6.51191 1.77598 6.51191 2.33926 6.51191 2.7207 5.99922 2.7207 5.31289 2.7207 4.79336 2.28047 4.31074 1.61328 4.31074 0.782031 4.31074 0.362305 4.90684 0.362305 5.40449 0.362305 5.70527 0.475781 5.97324 0.720508 6.07305 0.760156 6.08945 0.795703 6.07305 0.808008 6.0293 0.816211 5.99922 0.835352 5.92129 0.843555 5.88848 0.855859 5.84473 0.850391 5.82969 0.818945 5.79141 0.749219 5.70801 0.704102 5.60137 0.704102 5.44824 0.704102 5.00664 1.03496 4.61016 1.56543 4.61016 2.03574 4.61016 2.29414 4.89727 2.29414 5.28008 2.29414 5.78457 2.07129 6.20977 1.73906 6.20977 1.55586 6.20977 1.41914 6.05801 1.46289 5.87344 1.51484 5.65195 1.61738 5.4127 1.61738 5.25273 1.61738 5.10918 1.54082 4.99023 1.38086 4.99023 1.19355 4.99023 1.04316 5.18438 1.04316 5.44277 1.04316 5.6082 1.09922 5.71895 1.09922 5.71895 1.09922 5.71895 0.907813 6.53105 0.873633 6.67188 0.842187 6.80449 0.838086 6.95215 0.843555 7.07383 0.225586 6.80586-0.205078 6.18926-0.205078 5.47285-0.205078 4.50625 0.57832 3.72285 1.54492 3.72285 2.51152 3.72285 3.29492 4.50625 3.29492 5.47285 3.29492 6.43945 2.51152 7.22285 1.54492 7.22285Z" fill="#FFFFFF" transform="matrix(1 0 0 1.14286 355.955 422.734)"/></g></svg>