<svg width="462" height="165" xmlns="http://www.w3.org/2000/svg" xmlns:xlink="http://www.w3.org/1999/xlink" xml:space="preserve" overflow="hidden"><defs><clipPath id="clip0"><rect x="1379" y="1357" width="462" height="165"/></clipPath><clipPath id="clip1"><path d="M1427 1439C1427 1420.77 1441.77 1406 1460 1406 1478.23 1406 1493 1420.77 1493 1439 1493 1457.23 1478.23 1472 1460 1472 1441.77 1472 1427 1457.23 1427 1439Z" fill-rule="evenodd" clip-rule="evenodd"/></clipPath></defs><g clip-path="url(#clip0)" transform="translate(-1379 -1357)"><rect x="1379" y="1357" width="462" height="165" fill="#140129"/><path d="M1405 1439C1405 1409.73 1428.51 1386 1457.5 1386 1486.49 1386 1510 1409.73 1510 1439 1510 1468.27 1486.49 1492 1457.5 1492 1428.51 1492 1405 1468.27 1405 1439Z" fill="#FFFFFF" fill-rule="evenodd"/><g clip-path="url(#clip1)"><g><g><path d="M1487.84 1406 1432.16 1406C1429.31 1406 1427 1408.31 1427 1411.16L1427 1466.84C1427 1469.69 1429.31 1472 1432.16 1472L1487.84 1472C1490.69 1472 1493 1469.69 1493 1466.84L1493 1411.16C1493 1408.31 1490.69 1406 1487.84 1406ZM1460 1455.41C1458.38 1455.41 1456.8 1455.16 1455.32 1454.73 1455.95 1453.73 1456.64 1452.46 1456.98 1451.19 1457.19 1450.46 1458.14 1446.66 1458.14 1446.66 1458.71 1447.75 1460.39 1448.71 1462.18 1448.71 1467.49 1448.71 1471.09 1443.87 1471.09 1437.4 1471.09 1432.5 1466.94 1427.95 1460.64 1427.95 1452.81 1427.95 1448.85 1433.57 1448.85 1438.27 1448.85 1441.1 1449.92 1443.63 1452.23 1444.57 1452.6 1444.72 1452.94 1444.57 1453.05 1444.16 1453.13 1443.87 1453.31 1443.14 1453.39 1442.83 1453.5 1442.42 1453.45 1442.27 1453.15 1441.91 1452.5 1441.13 1452.07 1440.12 1452.07 1438.68 1452.07 1434.51 1455.19 1430.78 1460.19 1430.78 1464.63 1430.78 1467.06 1433.48 1467.06 1437.09 1467.06 1441.85 1464.96 1445.86 1461.83 1445.86 1460.1 1445.86 1458.81 1444.43 1459.23 1442.69 1459.72 1440.6 1460.68 1438.34 1460.68 1436.83 1460.68 1435.48 1459.96 1434.36 1458.45 1434.36 1456.69 1434.36 1455.27 1436.19 1455.27 1438.63 1455.27 1440.19 1455.8 1441.23 1455.8 1441.23 1455.8 1441.23 1453.99 1448.89 1453.67 1450.21 1453.37 1451.47 1453.34 1452.86 1453.39 1454 1447.56 1451.48 1443.5 1445.66 1443.5 1438.91 1443.5 1429.8 1450.89 1422.41 1460 1422.41 1469.11 1422.41 1476.5 1429.8 1476.5 1438.91 1476.5 1448.02 1469.11 1455.41 1460 1455.41Z" fill="#140129"/></g></g></g><text fill="#FFFFFF" font-family="Leelawadee UI,Leelawadee UI_MSFontService,sans-serif" font-weight="700" font-size="46" transform="matrix(1 0 0 1 1525.52 1456)">PINTEREST</text></g></svg>