<svg width="29" height="28" xmlns="http://www.w3.org/2000/svg" xmlns:xlink="http://www.w3.org/1999/xlink" xml:space="preserve" overflow="hidden"><g transform="translate(-330 -332)"><path d="M17.9922 7.92969-5.63281 7.92969C-6.84141 7.92969-7.82031 8.90859-7.82031 10.1172L-7.82031 33.7422C-7.82031 34.9508-6.84141 35.9297-5.63281 35.9297L17.9922 35.9297C19.2008 35.9297 20.1797 34.9508 20.1797 33.7422L20.1797 10.1172C20.1797 8.90859 19.2008 7.92969 17.9922 7.92969ZM6.17969 28.8914C5.49062 28.8914 4.82344 28.7875 4.19453 28.6016 4.4625 28.1805 4.75234 27.6391 4.9 27.1031 4.9875 26.7914 5.39219 25.1781 5.39219 25.1781 5.63281 25.643 6.34375 26.0477 7.10391 26.0477 9.35703 26.0477 10.8828 23.9969 10.8828 21.2516 10.8828 19.1734 9.12187 17.243 6.45312 17.243 3.12812 17.243 1.44922 19.6273 1.44922 21.618 1.44922 22.8211 1.90312 23.893 2.88203 24.2922 3.04062 24.3578 3.18281 24.2922 3.23203 24.1172 3.26484 23.9969 3.34141 23.6852 3.37422 23.5539 3.42344 23.3789 3.40156 23.3188 3.27578 23.1656 2.99688 22.832 2.81641 22.4055 2.81641 21.793 2.81641 20.0266 4.13984 18.4406 6.26172 18.4406 8.14297 18.4406 9.17656 19.5891 9.17656 21.1203 9.17656 23.1383 8.28516 24.8391 6.95625 24.8391 6.22344 24.8391 5.67656 24.232 5.85156 23.4937 6.05938 22.6078 6.46953 21.6508 6.46953 21.0109 6.46953 20.4367 6.16328 19.9609 5.52344 19.9609 4.77422 19.9609 4.17266 20.7375 4.17266 21.7711 4.17266 22.4328 4.39687 22.8758 4.39687 22.8758 4.39687 22.8758 3.63125 26.1242 3.49453 26.6875 3.36875 27.218 3.35234 27.8086 3.37422 28.2953 0.902344 27.2234-0.820312 24.757-0.820312 21.8914-0.820312 18.025 2.31328 14.8914 6.17969 14.8914 10.0461 14.8914 13.1797 18.025 13.1797 21.8914 13.1797 25.7578 10.0461 28.8914 6.17969 28.8914Z" fill="#FFFFFF" transform="matrix(1.03571 0 0 1 338.1 324.07)"/></g></svg>