<svg width="50" height="49" xmlns="http://www.w3.org/2000/svg" xmlns:xlink="http://www.w3.org/1999/xlink" xml:space="preserve" overflow="hidden"><defs><clipPath id="clip0"><rect x="1212" y="1459" width="50" height="49"/></clipPath><clipPath id="clip1"><path d="M1221 1483.5C1221 1474.39 1228.39 1467 1237.5 1467 1246.61 1467 1254 1474.39 1254 1483.5 1254 1492.61 1246.61 1500 1237.5 1500 1228.39 1500 1221 1492.61 1221 1483.5Z" fill-rule="evenodd" clip-rule="evenodd"/></clipPath></defs><g clip-path="url(#clip0)" transform="translate(-1212 -1459)"><path d="M1212 1483.5C1212 1469.97 1223.19 1459 1237 1459 1250.81 1459 1262 1469.97 1262 1483.5 1262 1497.03 1250.81 1508 1237 1508 1223.19 1508 1212 1497.03 1212 1483.5Z" fill="#FFFFFF" fill-rule="evenodd"/><g clip-path="url(#clip1)"><g><g><path d="M1251.42 1467 1223.58 1467C1222.15 1467 1221 1468.15 1221 1469.58L1221 1497.42C1221 1498.85 1222.15 1500 1223.58 1500L1251.42 1500C1252.85 1500 1254 1498.85 1254 1497.42L1254 1469.58C1254 1468.15 1252.85 1467 1251.42 1467ZM1237.5 1491.7C1236.69 1491.7 1235.9 1491.58 1235.16 1491.36 1235.48 1490.87 1235.82 1490.23 1235.99 1489.6 1236.09 1489.23 1236.57 1487.33 1236.57 1487.33 1236.86 1487.88 1237.69 1488.35 1238.59 1488.35 1241.24 1488.35 1243.04 1485.94 1243.04 1482.7 1243.04 1480.25 1240.97 1477.98 1237.82 1477.98 1233.9 1477.98 1231.92 1480.79 1231.92 1483.13 1231.92 1484.55 1232.46 1485.81 1233.61 1486.28 1233.8 1486.36 1233.97 1486.28 1234.03 1486.08 1234.06 1485.94 1234.15 1485.57 1234.19 1485.41 1234.25 1485.21 1234.23 1485.14 1234.08 1484.96 1233.75 1484.56 1233.54 1484.06 1233.54 1483.34 1233.54 1481.26 1235.1 1479.39 1237.6 1479.39 1239.81 1479.39 1241.03 1480.74 1241.03 1482.55 1241.03 1484.92 1239.98 1486.93 1238.42 1486.93 1237.55 1486.93 1236.91 1486.21 1237.11 1485.34 1237.36 1484.3 1237.84 1483.17 1237.84 1482.42 1237.84 1481.74 1237.48 1481.18 1236.73 1481.18 1235.84 1481.18 1235.13 1482.1 1235.13 1483.31 1235.13 1484.09 1235.4 1484.62 1235.4 1484.62 1235.4 1484.62 1234.5 1488.44 1234.34 1489.11 1234.19 1489.73 1234.17 1490.43 1234.19 1491 1231.28 1489.74 1229.25 1486.83 1229.25 1483.45 1229.25 1478.9 1232.94 1475.2 1237.5 1475.2 1242.06 1475.2 1245.75 1478.9 1245.75 1483.45 1245.75 1488.01 1242.06 1491.7 1237.5 1491.7Z" fill="#140129"/></g></g></g></g></svg>