<svg width="9" height="9" xmlns="http://www.w3.org/2000/svg" xmlns:xlink="http://www.w3.org/1999/xlink" xml:space="preserve" overflow="hidden"><g transform="translate(-355 -363)"><path d="M363.297 363 355.703 363C355.315 363 355 363.315 355 363.703L355 371.297C355 371.685 355.315 372 355.703 372L363.297 372C363.685 372 364 371.685 364 371.297L364 363.703C364 363.315 363.685 363 363.297 363ZM359.5 369.738C359.279 369.738 359.064 369.704 358.862 369.645 358.948 369.509 359.041 369.335 359.089 369.163 359.117 369.063 359.247 368.544 359.247 368.544 359.324 368.694 359.553 368.824 359.797 368.824 360.521 368.824 361.012 368.164 361.012 367.282 361.012 366.614 360.446 365.994 359.588 365.994 358.519 365.994 357.979 366.76 357.979 367.4 357.979 367.787 358.125 368.131 358.44 368.259 358.491 368.28 358.537 368.259 358.553 368.203 358.563 368.164 358.588 368.064 358.598 368.022 358.614 367.966 358.607 367.946 358.567 367.897 358.477 367.79 358.419 367.653 358.419 367.456 358.419 366.888 358.844 366.379 359.526 366.379 360.131 366.379 360.463 366.748 360.463 367.24 360.463 367.888 360.177 368.435 359.75 368.435 359.514 368.435 359.338 368.24 359.395 368.003 359.461 367.718 359.593 367.41 359.593 367.205 359.593 367.02 359.495 366.867 359.289 366.867 359.048 366.867 358.855 367.117 358.855 367.449 358.855 367.662 358.927 367.804 358.927 367.804 358.927 367.804 358.681 368.848 358.637 369.029 358.596 369.2 358.591 369.39 358.598 369.546 357.804 369.202 357.25 368.409 357.25 367.488 357.25 366.245 358.257 365.238 359.5 365.238 360.743 365.238 361.75 366.245 361.75 367.488 361.75 368.73 360.743 369.738 359.5 369.738Z" fill="#FFFFFF"/></g></svg>