<svg width="33" height="33" xmlns="http://www.w3.org/2000/svg" xmlns:xlink="http://www.w3.org/1999/xlink" xml:space="preserve" overflow="hidden"><defs><clipPath id="clip0"><rect x="1212" y="1459" width="33" height="33"/></clipPath><clipPath id="clip1"><path d="M1216 1475.5C1216 1468.04 1221.82 1462 1229 1462 1236.18 1462 1242 1468.04 1242 1475.5 1242 1482.96 1236.18 1489 1229 1489 1221.82 1489 1216 1482.96 1216 1475.5Z" fill-rule="evenodd" clip-rule="evenodd"/></clipPath></defs><g clip-path="url(#clip0)" transform="translate(-1212 -1459)"><path d="M1212 1475.5C1212 1466.39 1219.39 1459 1228.5 1459 1237.61 1459 1245 1466.39 1245 1475.5 1245 1484.61 1237.61 1492 1228.5 1492 1219.39 1492 1212 1484.61 1212 1475.5Z" fill="#140129" fill-rule="evenodd"/><g clip-path="url(#clip1)"><g><g><path d="M16.7071 7.36332-5.2305 7.36332C-6.35277 7.36332-7.26176 8.27231-7.26176 9.39458L-7.26176 31.3322C-7.26176 32.4545-6.35277 33.3634-5.2305 33.3634L16.7071 33.3634C17.8294 33.3634 18.7384 32.4545 18.7384 31.3322L18.7384 9.39458C18.7384 8.27231 17.8294 7.36332 16.7071 7.36332ZM5.73831 26.8279C5.09846 26.8279 4.47893 26.7314 3.89494 26.5587 4.14377 26.1677 4.41291 25.665 4.55002 25.1673 4.63127 24.8779 5.00706 23.3798 5.00706 23.3798 5.2305 23.8114 5.89066 24.1872 6.59652 24.1872 8.68872 24.1872 10.1055 22.2829 10.1055 19.7337 10.1055 17.804 8.47036 16.0114 5.99222 16.0114 2.9047 16.0114 1.34571 18.2255 1.34571 20.0739 1.34571 21.1911 1.7672 22.1864 2.67619 22.5571 2.82345 22.6181 2.95548 22.5571 3.00119 22.3946 3.03166 22.2829 3.10275 21.9935 3.13322 21.8716 3.17892 21.7091 3.15861 21.6532 3.04181 21.511 2.78283 21.2013 2.61525 20.8052 2.61525 20.2364 2.61525 18.5962 3.84416 17.1235 5.81448 17.1235 7.56137 17.1235 8.52114 18.1899 8.52114 19.6118 8.52114 21.4857 7.6934 23.065 6.45941 23.065 5.77894 23.065 5.27112 22.5013 5.43362 21.8157 5.62659 20.9931 6.00745 20.1044 6.00745 19.5103 6.00745 18.977 5.72308 18.5352 5.12893 18.5352 4.43323 18.5352 3.87463 19.2563 3.87463 20.2161 3.87463 20.8306 4.08283 21.2419 4.08283 21.2419 4.08283 21.2419 3.37189 24.2583 3.24494 24.7814 3.12814 25.274 3.11291 25.8224 3.13322 26.2744 0.837895 25.279-0.761723 22.9888-0.761723 20.3278-0.761723 16.7376 2.14806 13.8278 5.73831 13.8278 9.32856 13.8278 12.2383 16.7376 12.2383 20.3278 12.2383 23.9181 9.32856 26.8279 5.73831 26.8279Z" fill="#FFFFFF" transform="matrix(1 0 0 1.03846 1223.26 1454.35)"/></g></g></g></g></svg>