<svg width="33" height="34" xmlns="http://www.w3.org/2000/svg" xmlns:xlink="http://www.w3.org/1999/xlink" xml:space="preserve" overflow="hidden"><defs><clipPath id="clip0"><rect x="1219" y="1247" width="33" height="34"/></clipPath></defs><g clip-path="url(#clip0)" transform="translate(-1219 -1247)"><rect x="1219" y="1248" width="33" height="33" fill="#140129"/><path d="M1249.42 1247 1221.58 1247C1220.15 1247 1219 1248.15 1219 1249.58L1219 1277.42C1219 1278.85 1220.15 1280 1221.58 1280L1249.42 1280C1250.85 1280 1252 1278.85 1252 1277.42L1252 1249.58C1252 1248.15 1250.85 1247 1249.42 1247ZM1235.5 1271.7C1234.69 1271.7 1233.9 1271.58 1233.16 1271.36 1233.48 1270.87 1233.82 1270.23 1233.99 1269.6 1234.09 1269.23 1234.57 1267.33 1234.57 1267.33 1234.86 1267.88 1235.69 1268.35 1236.59 1268.35 1239.24 1268.35 1241.04 1265.94 1241.04 1262.7 1241.04 1260.25 1238.97 1257.98 1235.82 1257.98 1231.9 1257.98 1229.92 1260.79 1229.92 1263.13 1229.92 1264.55 1230.46 1265.81 1231.61 1266.28 1231.8 1266.36 1231.97 1266.28 1232.03 1266.08 1232.06 1265.94 1232.15 1265.57 1232.19 1265.41 1232.25 1265.21 1232.23 1265.14 1232.08 1264.96 1231.75 1264.56 1231.54 1264.06 1231.54 1263.34 1231.54 1261.26 1233.1 1259.39 1235.6 1259.39 1237.81 1259.39 1239.03 1260.74 1239.03 1262.55 1239.03 1264.92 1237.98 1266.93 1236.42 1266.93 1235.55 1266.93 1234.91 1266.21 1235.11 1265.34 1235.36 1264.3 1235.84 1263.17 1235.84 1262.42 1235.84 1261.74 1235.48 1261.18 1234.73 1261.18 1233.84 1261.18 1233.13 1262.1 1233.13 1263.31 1233.13 1264.09 1233.4 1264.62 1233.4 1264.62 1233.4 1264.62 1232.5 1268.44 1232.34 1269.11 1232.19 1269.73 1232.17 1270.43 1232.19 1271 1229.28 1269.74 1227.25 1266.83 1227.25 1263.45 1227.25 1258.9 1230.94 1255.2 1235.5 1255.2 1240.06 1255.2 1243.75 1258.9 1243.75 1263.45 1243.75 1268.01 1240.06 1271.7 1235.5 1271.7Z" fill="#FFFFFF"/></g></svg>