<svg width="10" height="10" xmlns="http://www.w3.org/2000/svg" xmlns:xlink="http://www.w3.org/1999/xlink" xml:space="preserve" overflow="hidden"><g transform="translate(-389 -394)"><path d="M398.219 394 389.781 394C389.35 394 389 394.35 389 394.781L389 403.219C389 403.65 389.35 404 389.781 404L398.219 404C398.65 404 399 403.65 399 403.219L399 394.781C399 394.35 398.65 394 398.219 394ZM395.996 398.223C395.998 398.266 395.998 398.311 395.998 398.355 395.998 399.713 394.965 401.279 393.074 401.279 392.494 401.279 391.953 401.109 391.5 400.818 391.58 400.828 391.662 400.832 391.746 400.832 392.227 400.832 392.67 400.668 393.021 400.393 392.572 400.385 392.191 400.088 392.062 399.68 392.125 399.691 392.189 399.697 392.256 399.697 392.35 399.697 392.441 399.686 392.527 399.66 392.057 399.566 391.703 399.15 391.703 398.652L391.703 398.641C391.842 398.717 392 398.764 392.168 398.77 391.893 398.586 391.711 398.27 391.711 397.914 391.711 397.727 391.762 397.549 391.85 397.396 392.357 398.02 393.113 398.428 393.967 398.471 393.949 398.396 393.939 398.318 393.939 398.236 393.939 397.67 394.4 397.209 394.967 397.209 395.262 397.209 395.529 397.334 395.717 397.533 395.951 397.486 396.17 397.402 396.369 397.283 396.293 397.523 396.129 397.725 395.918 397.852 396.125 397.826 396.324 397.771 396.508 397.689 396.371 397.896 396.197 398.076 395.996 398.223Z" fill="#FFFFFF"/></g></svg>