<svg width="33" height="33" xmlns="http://www.w3.org/2000/svg" xmlns:xlink="http://www.w3.org/1999/xlink" xml:space="preserve" overflow="hidden"><defs><clipPath id="clip0"><rect x="1305" y="1505" width="33" height="33"/></clipPath><clipPath id="clip1"><path d="M1309 1521.5C1309 1514.04 1314.82 1508 1322 1508 1329.18 1508 1335 1514.04 1335 1521.5 1335 1528.96 1329.18 1535 1322 1535 1314.82 1535 1309 1528.96 1309 1521.5Z" fill-rule="evenodd" clip-rule="evenodd"/></clipPath><clipPath id="clip2"><rect x="1309" y="1508" width="27" height="27"/></clipPath><clipPath id="clip3"><rect x="1309" y="1508" width="27" height="27"/></clipPath></defs><g clip-path="url(#clip0)" transform="translate(-1305 -1505)"><path d="M1305 1521.5C1305 1512.39 1312.39 1505 1321.5 1505 1330.61 1505 1338 1512.39 1338 1521.5 1338 1530.61 1330.61 1538 1321.5 1538 1312.39 1538 1305 1530.61 1305 1521.5Z" fill="#140129" fill-rule="evenodd"/><g clip-path="url(#clip1)"><g clip-path="url(#clip2)"><g clip-path="url(#clip3)"><path d="M16.7071 7.36332-5.2305 7.36332C-6.35277 7.36332-7.26176 8.27231-7.26176 9.39458L-7.26176 31.3322C-7.26176 32.4545-6.35277 33.3634-5.2305 33.3634L16.7071 33.3634C17.8294 33.3634 18.7384 32.4545 18.7384 31.3322L18.7384 9.39458C18.7384 8.27231 17.8294 7.36332 16.7071 7.36332ZM10.9282 18.3423C10.9333 18.454 10.9333 18.5708 10.9333 18.6876 10.9333 22.2169 8.24692 26.2896 3.33127 26.2896 1.82306 26.2896 0.416408 25.8478-0.761723 25.0911-0.553518 25.1165-0.340236 25.1267-0.121876 25.1267 1.12735 25.1267 2.28009 24.7001 3.19416 23.9841 2.02618 23.9638 1.03594 23.1919 0.700785 22.1306 0.863286 22.161 1.03086 22.1763 1.20352 22.1763 1.44727 22.1763 1.68595 22.1458 1.90938 22.0798 0.68555 21.836-0.233595 20.7544-0.233595 19.4595L-0.233595 19.429C0.126954 19.6271 0.538284 19.7489 0.975005 19.7642 0.258986 19.2868-0.213282 18.4642-0.213282 17.5399-0.213282 17.0524-0.0812504 16.5903 0.147266 16.1942 1.46759 17.8142 3.43283 18.8755 5.65198 18.9872 5.60628 18.7942 5.58089 18.5911 5.58089 18.3778 5.58089 16.9052 6.77933 15.7067 8.252 15.7067 9.0188 15.7067 9.7145 16.0317 10.202 16.5497 10.8114 16.4278 11.3801 16.2095 11.8981 15.8997 11.7001 16.5243 11.2735 17.0474 10.7251 17.3774 11.2633 17.3114 11.7813 17.1692 12.2587 16.9559 11.9032 17.4942 11.4512 17.9614 10.9282 18.3423Z" fill="#FFFFFF" transform="matrix(1 0 0 1.03845 1316.26 1500.35)"/></g></g></g></g></svg>