<svg width="8" height="8" xmlns="http://www.w3.org/2000/svg" xmlns:xlink="http://www.w3.org/1999/xlink" xml:space="preserve" overflow="hidden"><g transform="translate(-389 -394)"><path d="M396.375 394 389.625 394C389.28 394 389 394.28 389 394.625L389 401.375C389 401.72 389.28 402 389.625 402L396.375 402C396.72 402 397 401.72 397 401.375L397 394.625C397 394.28 396.72 394 396.375 394ZM394.597 397.378C394.598 397.413 394.598 397.448 394.598 397.484 394.598 398.57 393.772 399.823 392.259 399.823 391.795 399.823 391.362 399.688 391 399.455 391.064 399.462 391.13 399.466 391.197 399.466 391.581 399.466 391.936 399.334 392.217 399.114 391.858 399.108 391.553 398.87 391.45 398.544 391.5 398.553 391.552 398.558 391.605 398.558 391.68 398.558 391.753 398.548 391.822 398.528 391.445 398.453 391.163 398.12 391.163 397.722L391.163 397.712C391.273 397.773 391.4 397.811 391.534 397.816 391.314 397.669 391.169 397.416 391.169 397.131 391.169 396.981 391.209 396.839 391.28 396.717 391.686 397.216 392.291 397.542 392.973 397.577 392.959 397.517 392.952 397.455 392.952 397.389 392.952 396.936 393.32 396.567 393.773 396.567 394.009 396.567 394.223 396.667 394.373 396.827 394.561 396.789 394.736 396.722 394.895 396.627 394.834 396.819 394.703 396.98 394.534 397.081 394.7 397.061 394.859 397.017 395.006 396.952 394.897 397.117 394.758 397.261 394.597 397.378Z" fill="#FFFFFF"/></g></svg>