<svg width="50" height="50" xmlns="http://www.w3.org/2000/svg" xmlns:xlink="http://www.w3.org/1999/xlink" xml:space="preserve" overflow="hidden"><defs><clipPath id="clip0"><path d="M1221 1411.5C1221 1402.39 1228.39 1395 1237.5 1395 1246.61 1395 1254 1402.39 1254 1411.5 1254 1420.61 1246.61 1428 1237.5 1428 1228.39 1428 1221 1420.61 1221 1411.5Z" fill-rule="evenodd" clip-rule="evenodd"/></clipPath></defs><g transform="translate(-1212 -1386)"><path d="M1212 1411C1212 1397.19 1223.19 1386 1237 1386 1250.81 1386 1262 1397.19 1262 1411 1262 1424.81 1250.81 1436 1237 1436 1223.19 1436 1212 1424.81 1212 1411Z" fill="#FFFFFF" fill-rule="evenodd"/><g clip-path="url(#clip0)"><g><g><path d="M1251.42 1395 1223.58 1395C1222.15 1395 1221 1396.15 1221 1397.58L1221 1425.42C1221 1426.85 1222.15 1428 1223.58 1428L1251.42 1428C1252.85 1428 1254 1426.85 1254 1425.42L1254 1397.58C1254 1396.15 1252.85 1395 1251.42 1395ZM1244.09 1408.93C1244.09 1409.08 1244.09 1409.22 1244.09 1409.37 1244.09 1413.85 1240.68 1419.02 1234.44 1419.02 1232.53 1419.02 1230.75 1418.46 1229.25 1417.5 1229.51 1417.53 1229.78 1417.55 1230.06 1417.55 1231.65 1417.55 1233.11 1417 1234.27 1416.1 1232.79 1416.07 1231.53 1415.09 1231.11 1413.74 1231.31 1413.78 1231.53 1413.8 1231.74 1413.8 1232.05 1413.8 1232.36 1413.76 1232.64 1413.68 1231.09 1413.37 1229.92 1412 1229.92 1410.35L1229.92 1410.31C1230.38 1410.57 1230.9 1410.72 1231.45 1410.74 1230.55 1410.13 1229.95 1409.09 1229.95 1407.92 1229.95 1407.3 1230.11 1406.71 1230.4 1406.21 1232.08 1408.26 1234.57 1409.61 1237.39 1409.75 1237.33 1409.51 1237.3 1409.25 1237.3 1408.98 1237.3 1407.11 1238.82 1405.59 1240.69 1405.59 1241.66 1405.59 1242.55 1406 1243.17 1406.66 1243.94 1406.5 1244.66 1406.23 1245.32 1405.83 1245.07 1406.63 1244.53 1407.29 1243.83 1407.71 1244.51 1407.63 1245.17 1407.45 1245.78 1407.18 1245.32 1407.86 1244.75 1408.45 1244.09 1408.93Z" fill="#140129"/></g></g></g></g></svg>