<svg width="29" height="29" xmlns="http://www.w3.org/2000/svg" xmlns:xlink="http://www.w3.org/1999/xlink" xml:space="preserve" overflow="hidden"><g transform="translate(-389 -394)"><path d="M415.734 394 391.266 394C390.014 394 389 395.014 389 396.266L389 420.734C389 421.986 390.014 423 391.266 423L415.734 423C416.986 423 418 421.986 418 420.734L418 396.266C418 395.014 416.986 394 415.734 394ZM409.289 406.246C409.294 406.37 409.294 406.501 409.294 406.631 409.294 410.567 406.298 415.11 400.815 415.11 399.133 415.11 397.564 414.617 396.25 413.773 396.482 413.802 396.72 413.813 396.964 413.813 398.357 413.813 399.643 413.337 400.662 412.538 399.36 412.516 398.255 411.655 397.881 410.471 398.062 410.505 398.249 410.522 398.442 410.522 398.714 410.522 398.98 410.488 399.229 410.414 397.864 410.143 396.839 408.936 396.839 407.492L396.839 407.458C397.241 407.679 397.7 407.815 398.187 407.832 397.388 407.299 396.862 406.382 396.862 405.351 396.862 404.807 397.009 404.292 397.264 403.85 398.737 405.657 400.929 406.84 403.404 406.965 403.353 406.75 403.324 406.523 403.324 406.285 403.324 404.643 404.661 403.306 406.304 403.306 407.159 403.306 407.935 403.669 408.479 404.246 409.158 404.11 409.793 403.867 410.371 403.521 410.15 404.218 409.674 404.801 409.062 405.17 409.663 405.096 410.24 404.937 410.773 404.699 410.376 405.3 409.872 405.821 409.289 406.246Z" fill="#FFFFFF"/></g></svg>