<svg width="462" height="165" xmlns="http://www.w3.org/2000/svg" xmlns:xlink="http://www.w3.org/1999/xlink" xml:space="preserve" overflow="hidden"><defs><clipPath id="clip0"><rect x="1379" y="1162" width="462" height="165"/></clipPath><clipPath id="clip1"><path d="M1427 1244C1427 1225.77 1441.77 1211 1460 1211 1478.23 1211 1493 1225.77 1493 1244 1493 1262.23 1478.23 1277 1460 1277 1441.77 1277 1427 1262.23 1427 1244Z" fill-rule="evenodd" clip-rule="evenodd"/></clipPath></defs><g clip-path="url(#clip0)" transform="translate(-1379 -1162)"><rect x="1379" y="1162" width="462" height="165" fill="#140129"/><path d="M1404 1244.5C1404 1215.51 1427.73 1192 1457 1192 1486.27 1192 1510 1215.51 1510 1244.5 1510 1273.49 1486.27 1297 1457 1297 1427.73 1297 1404 1273.49 1404 1244.5Z" fill="#FFFFFF" fill-rule="evenodd"/><g clip-path="url(#clip1)"><g><g><path d="M1487.84 1211 1432.16 1211C1429.31 1211 1427 1213.31 1427 1216.16L1427 1271.84C1427 1274.69 1429.31 1277 1432.16 1277L1487.84 1277C1490.69 1277 1493 1274.69 1493 1271.84L1493 1216.16C1493 1213.31 1490.69 1211 1487.84 1211ZM1473.17 1238.87C1473.19 1239.15 1473.19 1239.45 1473.19 1239.75 1473.19 1248.71 1466.37 1259.04 1453.89 1259.04 1450.06 1259.04 1446.49 1257.92 1443.5 1256 1444.03 1256.07 1444.57 1256.09 1445.12 1256.09 1448.3 1256.09 1451.22 1255.01 1453.54 1253.19 1450.58 1253.14 1448.06 1251.18 1447.21 1248.49 1447.62 1248.56 1448.05 1248.6 1448.49 1248.6 1449.11 1248.6 1449.71 1248.52 1450.28 1248.36 1447.17 1247.74 1444.84 1244.99 1444.84 1241.71L1444.84 1241.63C1445.76 1242.13 1446.8 1242.44 1447.91 1242.48 1446.09 1241.27 1444.89 1239.18 1444.89 1236.83 1444.89 1235.6 1445.23 1234.42 1445.81 1233.42 1449.16 1237.53 1454.15 1240.22 1459.78 1240.51 1459.66 1240.02 1459.6 1239.5 1459.6 1238.96 1459.6 1235.22 1462.64 1232.18 1466.38 1232.18 1468.33 1232.18 1470.09 1233 1471.33 1234.32 1472.88 1234.01 1474.32 1233.46 1475.64 1232.67 1475.13 1234.25 1474.05 1235.58 1472.66 1236.42 1474.02 1236.25 1475.34 1235.89 1476.55 1235.35 1475.65 1236.72 1474.5 1237.9 1473.17 1238.87Z" fill="#140129"/></g></g></g><text fill="#FFFFFF" font-family="Leelawadee UI,Leelawadee UI_MSFontService,sans-serif" font-weight="700" font-size="46" transform="matrix(1 0 0 1 1525.52 1259)">TWITTER</text></g></svg>