<svg width="462" height="165" xmlns="http://www.w3.org/2000/svg" xmlns:xlink="http://www.w3.org/1999/xlink" xml:space="preserve" overflow="hidden"><defs><clipPath id="clip0"><rect x="1872" y="1162" width="462" height="165"/></clipPath><clipPath id="clip1"><path d="M1920 1243C1920 1224.77 1934.77 1210 1953 1210 1971.23 1210 1986 1224.77 1986 1243 1986 1261.23 1971.23 1276 1953 1276 1934.77 1276 1920 1261.23 1920 1243Z" fill-rule="evenodd" clip-rule="evenodd"/></clipPath></defs><g clip-path="url(#clip0)" transform="translate(-1872 -1162)"><rect x="1872" y="1162" width="462" height="165" fill="#140129"/><path d="M1898 1244.5C1898 1215.51 1921.51 1192 1950.5 1192 1979.49 1192 2003 1215.51 2003 1244.5 2003 1273.49 1979.49 1297 1950.5 1297 1921.51 1297 1898 1273.49 1898 1244.5Z" fill="#FFFFFF" fill-rule="evenodd"/><g clip-path="url(#clip1)"><g><g><path d="M1980.5 1228.01C1980.47 1226.83 1980.38 1225.64 1980.22 1224.46 1980.02 1223.43 1979.68 1222.44 1979.21 1221.49 1978.72 1220.48 1978.06 1219.55 1977.25 1218.74 1976.45 1217.95 1975.52 1217.29 1974.5 1216.79 1973.56 1216.33 1972.56 1216 1971.53 1215.8 1970.37 1215.63 1969.19 1215.53 1968.01 1215.5L1938.01 1215.5C1936.83 1215.53 1935.64 1215.62 1934.46 1215.78 1933.43 1215.98 1932.44 1216.32 1931.49 1216.79 1930.47 1217.28 1929.55 1217.94 1928.74 1218.74 1927.95 1219.55 1927.29 1220.48 1926.79 1221.49 1926.33 1222.44 1926 1223.44 1925.8 1224.46 1925.63 1225.63 1925.53 1226.81 1925.5 1227.98 1925.5 1228.51 1925.5 1229.25 1925.5 1229.47L1925.5 1256.53C1925.5 1256.83 1925.5 1257.49 1925.5 1257.99 1925.53 1259.17 1925.62 1260.36 1925.77 1261.54 1925.98 1262.57 1926.32 1263.56 1926.79 1264.51 1927.28 1265.53 1927.94 1266.45 1928.74 1267.26 1929.55 1268.05 1930.48 1268.71 1931.49 1269.21 1932.44 1269.67 1933.44 1270 1934.46 1270.2 1935.63 1270.37 1936.81 1270.47 1937.98 1270.5L1967.99 1270.5C1969.17 1270.47 1970.36 1270.38 1971.53 1270.22 1972.57 1270.02 1973.56 1269.68 1974.5 1269.21 1975.52 1268.72 1976.45 1268.06 1977.25 1267.26 1978.05 1266.45 1978.71 1265.52 1979.21 1264.51 1979.67 1263.56 1980 1262.56 1980.2 1261.54 1980.37 1260.37 1980.47 1259.19 1980.5 1258.02 1980.5 1257.49 1980.5 1256.83 1980.5 1256.53L1980.5 1229.47C1980.5 1229.25 1980.5 1228.51 1980.5 1228.01ZM1953.63 1262.25 1953.63 1262.25C1950.33 1262.23 1947.08 1261.38 1944.2 1259.78L1933.75 1262.53 1936.5 1252.3C1934.73 1249.32 1933.78 1245.92 1933.75 1242.45 1933.78 1231.55 1942.65 1222.73 1953.55 1222.76 1964.45 1222.79 1973.27 1231.66 1973.24 1242.56 1973.21 1253.39 1964.46 1262.17 1953.63 1262.25ZM1953.63 1226.14C1944.52 1226.25 1937.22 1233.72 1937.32 1242.83 1937.36 1245.8 1938.19 1248.71 1939.74 1251.25L1940.13 1251.88 1938.48 1257.91 1944.75 1256.2 1945.35 1256.56C1947.86 1258.03 1950.7 1258.82 1953.6 1258.84L1953.6 1258.84C1962.72 1258.84 1970.1 1251.45 1970.1 1242.34 1970.1 1233.23 1962.72 1225.84 1953.6 1225.84ZM1963.26 1249.57C1962.53 1250.79 1961.32 1251.64 1959.93 1251.91 1958.9 1252.1 1957.85 1252.03 1956.85 1251.72 1955.91 1251.42 1954.99 1251.08 1954.1 1250.67 1950.7 1248.97 1947.8 1246.41 1945.68 1243.25 1944.54 1241.78 1943.84 1240.02 1943.68 1238.16 1943.64 1236.6 1944.27 1235.1 1945.41 1234.04 1945.74 1233.66 1946.22 1233.44 1946.73 1233.43L1947.5 1233.43C1947.8 1233.43 1948.21 1233.43 1948.6 1234.28 1948.98 1235.14 1950 1237.69 1950.14 1237.94 1950.28 1238.21 1950.28 1238.52 1950.14 1238.79 1950.02 1239.09 1949.85 1239.37 1949.64 1239.62 1949.4 1239.92 1949.12 1240.28 1948.9 1240.5 1948.68 1240.72 1948.41 1240.99 1948.68 1241.49 1949.43 1242.75 1950.36 1243.9 1951.43 1244.9 1952.6 1245.93 1953.94 1246.76 1955.39 1247.34 1955.89 1247.59 1956.19 1247.56 1956.46 1247.34 1956.74 1247.12 1957.7 1245.92 1958.03 1245.42 1958.36 1244.93 1958.69 1245.01 1959.13 1245.17 1959.57 1245.34 1962.02 1246.52 1962.51 1246.77 1963.01 1247.02 1963.31 1247.12 1963.45 1247.34 1963.57 1248.06 1963.5 1248.8 1963.26 1249.49Z" fill="#140129"/></g></g></g><text fill="#FFFFFF" font-family="Leelawadee UI,Leelawadee UI_MSFontService,sans-serif" font-weight="700" font-size="46" text-decoration="underline" transform="matrix(1 0 0 1 2016.49 1263)">WHATSAPP</text></g></svg>