<svg width="33" height="33" xmlns="http://www.w3.org/2000/svg" xmlns:xlink="http://www.w3.org/1999/xlink" xml:space="preserve" overflow="hidden"><defs><clipPath id="clip0"><rect x="1897" y="1176" width="33" height="33"/></clipPath><clipPath id="clip1"><path d="M1901 1192C1901 1184.82 1906.82 1179 1914 1179 1921.18 1179 1927 1184.82 1927 1192 1927 1199.18 1921.18 1205 1914 1205 1906.82 1205 1901 1199.18 1901 1192Z" fill-rule="evenodd" clip-rule="evenodd"/></clipPath></defs><g clip-path="url(#clip0)" transform="translate(-1897 -1176)"><path d="M1897 1192.5C1897 1183.39 1904.39 1176 1913.5 1176 1922.61 1176 1930 1183.39 1930 1192.5 1930 1201.61 1922.61 1209 1913.5 1209 1904.39 1209 1897 1201.61 1897 1192.5Z" fill="#140129" fill-rule="evenodd"/><g clip-path="url(#clip1)"><g><g><path d="M23.8331 7.09577C23.821 6.62839 23.7848 6.16196 23.7248 5.69828 23.6439 5.29217 23.5091 4.89869 23.324 4.52829 23.1304 4.1265 22.8703 3.76025 22.5548 3.44497 22.2364 3.13319 21.8708 2.87361 21.4715 2.67581 21.1005 2.49429 20.7071 2.36313 20.3015 2.28581 19.8423 2.21702 19.3791 2.17722 18.9148 2.16665L7.09577 2.16665C6.62839 2.17882 6.16196 2.21497 5.69828 2.27498 5.29217 2.35587 4.89869 2.49067 4.52829 2.67581 4.1265 2.86944 3.76025 3.12947 3.44497 3.44497 3.13319 3.76337 2.87361 4.12897 2.67581 4.52829 2.49429 4.89918 2.36313 5.29266 2.28581 5.69828 2.21702 6.15754 2.17722 6.62068 2.16665 7.08494 2.16665 7.29077 2.16665 7.58327 2.16665 7.66993L2.16665 18.3298C2.16665 18.449 2.16665 18.709 2.16665 18.904 2.17882 19.3713 2.21497 19.8378 2.27498 20.3015 2.35587 20.7076 2.49067 21.1011 2.67581 21.4715 2.86944 21.8733 3.12947 22.2396 3.44497 22.5548 3.76337 22.8666 4.12897 23.1261 4.52829 23.324 4.89918 23.5055 5.29266 23.6366 5.69828 23.714 6.15754 23.7827 6.62068 23.8225 7.08494 23.8331L18.904 23.8331C19.3713 23.821 19.8378 23.7848 20.3015 23.7248 20.7076 23.6439 21.1011 23.5091 21.4715 23.324 21.8733 23.1304 22.2396 22.8703 22.5548 22.5548 22.8666 22.2364 23.1261 21.8708 23.324 21.4715 23.5055 21.1005 23.6366 20.7071 23.714 20.3015 23.7827 19.8423 23.8225 19.3791 23.8331 18.9148 23.8331 18.709 23.8331 18.449 23.8331 18.3298L23.8331 7.66993C23.8331 7.58327 23.8331 7.29077 23.8331 7.09577ZM13.249 20.5832 13.249 20.5832C11.9481 20.5768 10.6698 20.2414 9.53325 19.6082L5.41662 20.6915 6.49994 16.6615C5.80132 15.4877 5.42744 14.1492 5.41662 12.7832 5.42869 8.48742 8.92091 5.01477 13.2167 5.02684 17.5125 5.03891 20.9852 8.53113 20.973 12.8269 20.9611 17.093 17.5151 20.5535 13.249 20.5832ZM13.249 6.35911C9.65947 6.40019 6.78283 9.34342 6.82391 12.933 6.83731 14.1044 7.16705 15.2505 7.77826 16.2499L7.92993 16.499 7.27994 18.8715 9.74991 18.1998 9.98825 18.3407C10.9736 18.9211 12.0947 19.2313 13.2382 19.2398L13.2382 19.2398C16.828 19.2398 19.7382 16.3297 19.7382 12.7399 19.7382 9.15007 16.828 6.23994 13.2382 6.23994ZM17.0407 15.589C16.7537 16.0676 16.2774 16.4023 15.7299 16.5099 15.3252 16.5838 14.9088 16.5577 14.5165 16.434 14.1474 16.3186 13.7857 16.1812 13.4332 16.0224 12.0939 15.3504 10.9518 14.3426 10.1182 13.0974 9.66528 12.5205 9.39046 11.824 9.32742 11.0932 9.31437 10.4793 9.56242 9.88873 10.0099 9.46825 10.1417 9.31882 10.3307 9.23221 10.5299 9.22992L10.8332 9.22992C10.9524 9.22992 11.1149 9.22992 11.2666 9.56575 11.4182 9.90158 11.8191 10.9091 11.8732 11.0066 11.9272 11.112 11.9272 11.237 11.8732 11.3424 11.8253 11.4602 11.7596 11.5698 11.6782 11.6674 11.5807 11.7866 11.4724 11.9274 11.3857 12.0141 11.2991 12.1007 11.1907 12.2091 11.2991 12.4041 11.5938 12.9015 11.9587 13.3539 12.3824 13.7474 12.8438 14.1551 13.3714 14.4811 13.9424 14.7115 14.1374 14.809 14.2565 14.7982 14.3649 14.7115 14.4732 14.6249 14.8524 14.1482 14.9824 13.9532 15.1124 13.7582 15.2424 13.7907 15.4157 13.8557 15.589 13.9207 16.5532 14.3865 16.7482 14.484 16.9432 14.5815 17.0623 14.6249 17.1165 14.7115 17.1635 14.995 17.1374 15.2859 17.0407 15.5565Z" fill="#FFFFFF" transform="matrix(1.00001 0 0 1 1901 1179)"/></g></g></g></g></svg>