<svg width="49" height="49" xmlns="http://www.w3.org/2000/svg" xmlns:xlink="http://www.w3.org/1999/xlink" xml:space="preserve" overflow="hidden"><defs><clipPath id="clip0"><rect x="1897" y="1176" width="49" height="49"/></clipPath><clipPath id="clip1"><path d="M1905 1200.5C1905 1191.39 1912.39 1184 1921.5 1184 1930.61 1184 1938 1191.39 1938 1200.5 1938 1209.61 1930.61 1217 1921.5 1217 1912.39 1217 1905 1209.61 1905 1200.5Z" fill-rule="evenodd" clip-rule="evenodd"/></clipPath></defs><g clip-path="url(#clip0)" transform="translate(-1897 -1176)"><path d="M1897 1200.5C1897 1186.97 1907.97 1176 1921.5 1176 1935.03 1176 1946 1186.97 1946 1200.5 1946 1214.03 1935.03 1225 1921.5 1225 1907.97 1225 1897 1214.03 1897 1200.5Z" fill="#FFFFFF" fill-rule="evenodd"/><g clip-path="url(#clip1)"><g><g><path d="M1935.25 1193.01C1935.23 1192.41 1935.19 1191.82 1935.11 1191.23 1935.01 1190.72 1934.84 1190.22 1934.6 1189.75 1934.36 1189.24 1934.03 1188.77 1933.63 1188.37 1933.22 1187.98 1932.76 1187.65 1932.25 1187.4 1931.78 1187.17 1931.28 1187 1930.77 1186.9 1930.18 1186.81 1929.6 1186.76 1929.01 1186.75L1914.01 1186.75C1913.41 1186.77 1912.82 1186.81 1912.23 1186.89 1911.72 1186.99 1911.22 1187.16 1910.75 1187.4 1910.24 1187.64 1909.77 1187.97 1909.37 1188.37 1908.98 1188.78 1908.65 1189.24 1908.4 1189.75 1908.17 1190.22 1908 1190.72 1907.9 1191.23 1907.81 1191.82 1907.76 1192.4 1907.75 1192.99 1907.75 1193.25 1907.75 1193.62 1907.75 1193.73L1907.75 1207.26C1907.75 1207.42 1907.75 1207.75 1907.75 1207.99 1907.77 1208.59 1907.81 1209.18 1907.89 1209.77 1907.99 1210.28 1908.16 1210.78 1908.4 1211.25 1908.64 1211.76 1908.97 1212.23 1909.37 1212.63 1909.78 1213.02 1910.24 1213.35 1910.75 1213.6 1911.22 1213.83 1911.72 1214 1912.23 1214.1 1912.82 1214.19 1913.4 1214.24 1913.99 1214.25L1928.99 1214.25C1929.59 1214.23 1930.18 1214.19 1930.77 1214.11 1931.28 1214.01 1931.78 1213.84 1932.25 1213.6 1932.76 1213.36 1933.23 1213.03 1933.63 1212.63 1934.02 1212.22 1934.35 1211.76 1934.6 1211.25 1934.83 1210.78 1935 1210.28 1935.1 1209.77 1935.19 1209.18 1935.24 1208.6 1935.25 1208.01 1935.25 1207.75 1935.25 1207.42 1935.25 1207.26L1935.25 1193.73C1935.25 1193.62 1935.25 1193.25 1935.25 1193.01ZM1921.82 1210.12 1921.82 1210.12C1920.17 1210.12 1918.54 1209.69 1917.1 1208.89L1911.88 1210.26 1913.25 1205.15C1912.36 1203.66 1911.89 1201.96 1911.88 1200.22 1911.89 1194.77 1916.32 1190.36 1921.78 1190.38 1927.23 1190.4 1931.64 1194.83 1931.62 1200.28 1931.6 1205.7 1927.23 1210.09 1921.82 1210.12ZM1921.82 1192.07C1917.26 1192.12 1913.61 1195.86 1913.66 1200.42 1913.68 1201.9 1914.1 1203.36 1914.87 1204.62L1915.07 1204.94 1914.24 1207.95 1917.38 1207.1 1917.68 1207.28C1918.93 1208.02 1920.35 1208.41 1921.8 1208.42L1921.8 1208.42C1926.36 1208.42 1930.05 1204.73 1930.05 1200.17 1930.05 1195.61 1926.36 1191.92 1921.8 1191.92ZM1926.63 1203.79C1926.26 1204.39 1925.66 1204.82 1924.97 1204.95 1924.45 1205.05 1923.92 1205.02 1923.43 1204.86 1922.96 1204.71 1922.5 1204.54 1922.05 1204.34 1920.35 1203.48 1918.9 1202.2 1917.84 1200.62 1917.27 1199.89 1916.92 1199.01 1916.84 1198.08 1916.82 1197.3 1917.14 1196.55 1917.71 1196.02 1917.87 1195.83 1918.11 1195.72 1918.37 1195.71L1918.75 1195.71C1918.9 1195.71 1919.11 1195.71 1919.3 1196.14 1919.49 1196.57 1920 1197.85 1920.07 1197.97 1920.14 1198.1 1920.14 1198.26 1920.07 1198.4 1920.01 1198.55 1919.93 1198.68 1919.82 1198.81 1919.7 1198.96 1919.56 1199.14 1919.45 1199.25 1919.34 1199.36 1919.2 1199.5 1919.34 1199.74 1919.72 1200.38 1920.18 1200.95 1920.72 1201.45 1921.3 1201.97 1921.97 1202.38 1922.7 1202.67 1922.94 1202.8 1923.1 1202.78 1923.23 1202.67 1923.37 1202.56 1923.85 1201.96 1924.02 1201.71 1924.18 1201.46 1924.35 1201.5 1924.57 1201.59 1924.79 1201.67 1926.01 1202.26 1926.26 1202.38 1926.51 1202.51 1926.66 1202.56 1926.73 1202.67 1926.78 1203.03 1926.75 1203.4 1926.63 1203.74Z" fill="#140129"/></g></g></g></g></svg>