<svg width="10" height="9" xmlns="http://www.w3.org/2000/svg" xmlns:xlink="http://www.w3.org/1999/xlink" xml:space="preserve" overflow="hidden"><g transform="translate(-553 -343)"><path d="M8.25 2.45625C8.2458 2.29446 8.23328 2.133 8.2125 1.9725 8.18449 1.83192 8.13784 1.69572 8.07375 1.5675 8.00674 1.42842 7.9167 1.30164 7.8075 1.1925 7.69729 1.08457 7.57073 0.994721 7.4325 0.92625 7.3041 0.863415 7.1679 0.818014 7.0275 0.79125 6.86854 0.767437 6.70822 0.75366 6.5475 0.75L2.45625 0.75C2.29446 0.754215 2.133 0.766729 1.9725 0.7875 1.83192 0.815501 1.69572 0.862162 1.5675 0.92625 1.42842 0.993278 1.30164 1.08329 1.1925 1.1925 1.08457 1.30272 0.994721 1.42927 0.92625 1.5675 0.863415 1.69588 0.818014 1.83209 0.79125 1.9725 0.767437 2.13147 0.75366 2.29179 0.75 2.4525 0.75 2.52375 0.75 2.625 0.75 2.655L0.75 6.345C0.75 6.38625 0.75 6.47625 0.75 6.54375 0.754215 6.70552 0.766729 6.867 0.7875 7.0275 0.815501 7.16809 0.862162 7.30429 0.92625 7.4325 0.993278 7.57159 1.08329 7.69837 1.1925 7.8075 1.30272 7.91542 1.42927 8.00528 1.5675 8.07375 1.69588 8.1366 1.83209 8.18197 1.9725 8.20875 2.13147 8.23256 2.29179 8.24632 2.4525 8.25L6.54375 8.25C6.70552 8.2458 6.867 8.23328 7.0275 8.2125 7.16809 8.18449 7.30429 8.13784 7.4325 8.07375 7.57159 8.00674 7.69837 7.9167 7.8075 7.8075 7.91542 7.69729 8.00528 7.57073 8.07375 7.4325 8.1366 7.3041 8.18197 7.1679 8.20875 7.0275 8.23256 6.86854 8.24632 6.70822 8.25 6.5475 8.25 6.47625 8.25 6.38625 8.25 6.345L8.25 2.655C8.25 2.625 8.25 2.52375 8.25 2.45625ZM4.58625 7.125 4.58625 7.125C4.13591 7.12279 3.69342 7.00669 3.3 6.7875L1.875 7.1625 2.25 5.7675C2.00817 5.36119 1.87875 4.89784 1.875 4.425 1.87918 2.93798 3.08804 1.7359 4.57504 1.74008 6.06206 1.74425 7.26416 2.95311 7.25996 4.44011 7.25584 5.91686 6.06296 7.11473 4.58625 7.125ZM4.58625 2.20125C3.34369 2.21547 2.34792 3.23429 2.36214 4.47686 2.36678 4.88235 2.48093 5.27906 2.6925 5.625L2.745 5.71125 2.52 6.5325 3.375 6.3 3.4575 6.34875C3.7986 6.54967 4.18665 6.65704 4.5825 6.66L4.5825 6.66C5.82514 6.66 6.8325 5.65264 6.8325 4.41 6.8325 3.16736 5.82514 2.16 4.5825 2.16ZM5.89875 5.39625C5.79941 5.56192 5.63453 5.67776 5.445 5.715 5.30494 5.74061 5.16079 5.73158 5.025 5.68875 4.89724 5.64881 4.77203 5.60122 4.65 5.54625 4.18639 5.31364 3.79102 4.96478 3.5025 4.53375 3.34571 4.33406 3.25057 4.09298 3.22875 3.84 3.22424 3.62749 3.3101 3.42305 3.465 3.2775 3.51063 3.22577 3.57603 3.1958 3.645 3.195L3.75 3.195C3.79125 3.195 3.8475 3.195 3.9 3.31125 3.9525 3.4275 4.09125 3.77625 4.11 3.81 4.12867 3.84649 4.12867 3.88976 4.11 3.92625 4.09342 3.96701 4.07066 4.00496 4.0425 4.03875 4.00875 4.08 3.97125 4.12875 3.94125 4.15875 3.91125 4.18875 3.87375 4.22625 3.91125 4.29375 4.01329 4.46595 4.13959 4.62255 4.28625 4.75875 4.44596 4.8999 4.62859 5.01274 4.82625 5.0925 4.89375 5.12625 4.935 5.1225 4.9725 5.0925 5.01 5.0625 5.14125 4.8975 5.18625 4.83 5.23125 4.7625 5.27625 4.77375 5.33625 4.79625 5.39625 4.81875 5.73 4.98 5.7975 5.01375 5.865 5.0475 5.90625 5.0625 5.925 5.0925 5.94128 5.19064 5.93224 5.29133 5.89875 5.385Z" fill="#FFFFFF" transform="matrix(1.11111 0 0 1 553 343)"/></g></svg>