<svg width="8" height="8" xmlns="http://www.w3.org/2000/svg" xmlns:xlink="http://www.w3.org/1999/xlink" xml:space="preserve" overflow="hidden"><g transform="translate(-553 -343)"><path d="M560.333 345.183C560.33 345.04 560.318 344.896 560.3 344.753 560.275 344.628 560.234 344.507 560.177 344.393 560.117 344.27 560.037 344.157 559.94 344.06 559.842 343.964 559.73 343.884 559.607 343.823 559.493 343.767 559.371 343.727 559.247 343.703 559.105 343.682 558.963 343.67 558.82 343.667L555.183 343.667C555.04 343.67 554.896 343.682 554.753 343.7 554.628 343.725 554.507 343.766 554.393 343.823 554.27 343.883 554.157 343.963 554.06 344.06 553.964 344.158 553.884 344.27 553.823 344.393 553.767 344.507 553.727 344.629 553.703 344.753 553.682 344.895 553.67 345.037 553.667 345.18 553.667 345.243 553.667 345.333 553.667 345.36L553.667 348.64C553.667 348.677 553.667 348.757 553.667 348.817 553.67 348.96 553.682 349.104 553.7 349.247 553.725 349.372 553.766 349.493 553.823 349.607 553.883 349.73 553.963 349.843 554.06 349.94 554.158 350.036 554.27 350.116 554.393 350.177 554.507 350.233 554.629 350.273 554.753 350.297 554.895 350.318 555.037 350.33 555.18 350.333L558.817 350.333C558.96 350.33 559.104 350.318 559.247 350.3 559.372 350.275 559.493 350.234 559.607 350.177 559.73 350.117 559.843 350.037 559.94 349.94 560.036 349.842 560.116 349.73 560.177 349.607 560.233 349.493 560.273 349.371 560.297 349.247 560.318 349.105 560.33 348.963 560.333 348.82 560.333 348.757 560.333 348.677 560.333 348.64L560.333 345.36C560.333 345.333 560.333 345.243 560.333 345.183ZM557.077 349.333 557.077 349.333C556.676 349.331 556.283 349.228 555.933 349.033L554.667 349.367 555 348.127C554.785 347.766 554.67 347.354 554.667 346.933 554.67 345.612 555.745 344.543 557.067 344.547 558.388 344.55 559.457 345.625 559.453 346.947 559.45 348.259 558.389 349.324 557.077 349.333ZM557.077 344.957C555.972 344.969 555.087 345.875 555.1 346.979 555.104 347.34 555.205 347.693 555.393 348L555.44 348.077 555.24 348.807 556 348.6 556.073 348.643C556.377 348.822 556.721 348.917 557.073 348.92L557.073 348.92C558.178 348.92 559.073 348.025 559.073 346.92 559.073 345.815 558.178 344.92 557.073 344.92ZM558.243 347.797C558.155 347.944 558.008 348.047 557.84 348.08 557.716 348.103 557.587 348.095 557.467 348.057 557.353 348.021 557.242 347.979 557.133 347.93 556.721 347.723 556.37 347.413 556.113 347.03 555.974 346.853 555.889 346.638 555.87 346.413 555.866 346.224 555.942 346.043 556.08 345.913 556.121 345.867 556.179 345.841 556.24 345.84L556.333 345.84C556.37 345.84 556.42 345.84 556.467 345.943 556.513 346.047 556.637 346.357 556.653 346.387 556.67 346.419 556.67 346.458 556.653 346.49 556.639 346.526 556.618 346.56 556.593 346.59 556.563 346.627 556.53 346.67 556.503 346.697 556.477 346.723 556.443 346.757 556.477 346.817 556.567 346.97 556.68 347.109 556.81 347.23 556.952 347.355 557.114 347.456 557.29 347.527 557.35 347.557 557.387 347.553 557.42 347.527 557.453 347.5 557.57 347.353 557.61 347.293 557.65 347.233 557.69 347.243 557.743 347.263 557.797 347.283 558.093 347.427 558.153 347.457 558.213 347.487 558.25 347.5 558.267 347.527 558.281 347.614 558.273 347.703 558.243 347.787Z" fill="#FFFFFF"/></g></svg>