<svg width="29" height="29" xmlns="http://www.w3.org/2000/svg" xmlns:xlink="http://www.w3.org/1999/xlink" xml:space="preserve" overflow="hidden"><g transform="translate(-553 -343)"><path d="M579.583 350.915C579.57 350.393 579.529 349.873 579.463 349.356 579.372 348.903 579.222 348.464 579.015 348.051 578.799 347.603 578.509 347.194 578.157 346.842 577.802 346.495 577.395 346.205 576.949 345.985 576.535 345.782 576.097 345.636 575.644 345.55 575.132 345.473 574.615 345.428 574.097 345.417L560.915 345.417C560.393 345.43 559.873 345.471 559.356 345.538 558.903 345.628 558.464 345.778 558.051 345.985 557.603 346.201 557.194 346.491 556.843 346.842 556.495 347.198 556.205 347.605 555.985 348.051 555.782 348.465 555.636 348.903 555.55 349.356 555.473 349.868 555.428 350.385 555.417 350.902 555.417 351.132 555.417 351.458 555.417 351.555L555.417 363.445C555.417 363.578 555.417 363.868 555.417 364.085 555.43 364.607 555.471 365.127 555.537 365.644 555.628 366.097 555.778 366.536 555.985 366.949 556.201 367.397 556.491 367.806 556.843 368.158 557.198 368.505 557.605 368.795 558.051 369.015 558.465 369.218 558.903 369.364 559.356 369.45 559.868 369.527 560.385 369.572 560.903 369.583L574.085 369.583C574.607 369.57 575.127 369.529 575.644 369.462 576.097 369.372 576.536 369.222 576.949 369.015 577.397 368.799 577.806 368.509 578.157 368.158 578.505 367.802 578.795 367.395 579.015 366.949 579.218 366.535 579.364 366.097 579.45 365.644 579.527 365.132 579.571 364.615 579.583 364.098 579.583 363.868 579.583 363.578 579.583 363.445L579.583 351.555C579.583 351.458 579.583 351.132 579.583 350.915ZM567.778 365.958 567.778 365.958C566.327 365.951 564.901 365.577 563.633 364.871L559.042 366.079 560.25 361.584C559.471 360.275 559.054 358.782 559.042 357.258 559.055 352.467 562.95 348.593 567.742 348.607 572.533 348.62 576.407 352.516 576.393 357.307 576.38 362.065 572.536 365.925 567.778 365.958ZM567.778 350.093C563.774 350.139 560.566 353.422 560.611 357.425 560.626 358.732 560.994 360.01 561.676 361.125L561.845 361.403 561.12 364.049 563.875 363.3 564.141 363.457C565.24 364.104 566.49 364.45 567.766 364.46L567.766 364.46C571.77 364.46 575.016 361.214 575.016 357.21 575.016 353.206 571.77 349.96 567.766 349.96ZM572.007 360.388C571.687 360.922 571.156 361.295 570.545 361.415 570.094 361.498 569.629 361.468 569.192 361.33 568.78 361.202 568.377 361.048 567.983 360.871 566.49 360.122 565.216 358.998 564.286 357.609 563.781 356.965 563.474 356.188 563.404 355.373 563.389 354.689 563.666 354.03 564.165 353.561 564.312 353.394 564.523 353.298 564.745 353.295L565.083 353.295C565.216 353.295 565.398 353.295 565.567 353.67 565.736 354.044 566.183 355.168 566.243 355.277 566.304 355.394 566.304 355.534 566.243 355.651 566.19 355.783 566.117 355.905 566.026 356.014 565.917 356.147 565.796 356.304 565.7 356.4 565.603 356.497 565.482 356.618 565.603 356.835 565.932 357.39 566.339 357.895 566.811 358.334 567.326 358.789 567.914 359.152 568.551 359.409 568.769 359.518 568.902 359.506 569.023 359.409 569.143 359.312 569.566 358.781 569.711 358.563 569.856 358.346 570.001 358.382 570.195 358.455 570.388 358.527 571.463 359.047 571.681 359.155 571.898 359.264 572.031 359.312 572.092 359.409 572.144 359.725 572.115 360.05 572.007 360.352Z" fill="#FFFFFF"/></g></svg>